<mxfile host="Electron" modified="2023-07-20T20:13:52.780Z" agent="Mozilla/5.0 (X11; Linux x86_64) AppleWebKit/537.36 (KHTML, like Gecko) draw.io/21.6.1 Chrome/112.0.5615.204 Electron/24.6.1 Safari/537.36" etag="sWBuzAuUoT5u7Z6c-fLc" version="21.6.1" type="device">
  <diagram id="C5RBs43oDa-KdzZeNtuy" name="Page-1">
    <mxGraphModel dx="1509" dy="886" grid="0" gridSize="10" guides="1" tooltips="1" connect="1" arrows="1" fold="1" page="0" pageScale="1" pageWidth="827" pageHeight="1169" math="0" shadow="0">
      <root>
        <mxCell id="WIyWlLk6GJQsqaUBKTNV-0" />
        <mxCell id="WIyWlLk6GJQsqaUBKTNV-1" parent="WIyWlLk6GJQsqaUBKTNV-0" />
        <mxCell id="2tYWSclUZyd6j4Mg-vZg-1" style="edgeStyle=orthogonalEdgeStyle;rounded=0;orthogonalLoop=1;jettySize=auto;html=1;exitX=0.575;exitY=0.973;exitDx=0;exitDy=0;entryX=0.5;entryY=0;entryDx=0;entryDy=0;exitPerimeter=0;" parent="WIyWlLk6GJQsqaUBKTNV-1" source="GInUh0l-TV1WXXjX3l_l-3" target="2tYWSclUZyd6j4Mg-vZg-0" edge="1">
          <mxGeometry relative="1" as="geometry" />
        </mxCell>
        <mxCell id="GInUh0l-TV1WXXjX3l_l-3" value="&lt;b&gt;Learner L&amp;nbsp;&lt;/b&gt;requests Guided Tour on&lt;br&gt;any seed concept" style="rounded=1;whiteSpace=wrap;html=1;fillColor=#dae8fc;strokeColor=#6c8ebf;" parent="WIyWlLk6GJQsqaUBKTNV-1" vertex="1">
          <mxGeometry x="252" y="55" width="121" height="60" as="geometry" />
        </mxCell>
        <mxCell id="2tYWSclUZyd6j4Mg-vZg-5" value="Yes" style="edgeStyle=orthogonalEdgeStyle;rounded=0;orthogonalLoop=1;jettySize=auto;html=1;exitX=1;exitY=0.5;exitDx=0;exitDy=0;entryX=0.5;entryY=1;entryDx=0;entryDy=0;" parent="WIyWlLk6GJQsqaUBKTNV-1" source="GInUh0l-TV1WXXjX3l_l-6" target="2tYWSclUZyd6j4Mg-vZg-4" edge="1">
          <mxGeometry x="-0.1234" relative="1" as="geometry">
            <mxPoint as="offset" />
          </mxGeometry>
        </mxCell>
        <mxCell id="GInUh0l-TV1WXXjX3l_l-6" value="Is L&#39;s&lt;br&gt;competency&lt;br&gt;sufficient?" style="rhombus;whiteSpace=wrap;html=1;" parent="WIyWlLk6GJQsqaUBKTNV-1" vertex="1">
          <mxGeometry x="399.5" y="110" width="101.25" height="100" as="geometry" />
        </mxCell>
        <mxCell id="GInUh0l-TV1WXXjX3l_l-9" value="&lt;i&gt;&lt;b&gt;Guided Tour&lt;br&gt;complete&lt;/b&gt;&lt;/i&gt;" style="rounded=1;whiteSpace=wrap;html=1;fillColor=#dae8fc;strokeColor=#6c8ebf;" parent="WIyWlLk6GJQsqaUBKTNV-1" vertex="1">
          <mxGeometry x="532.95" y="436.5" width="130" height="65" as="geometry" />
        </mxCell>
        <mxCell id="G3OisUrH4MvTNsd7Q_-K-3" style="edgeStyle=orthogonalEdgeStyle;rounded=0;orthogonalLoop=1;jettySize=auto;html=1;exitX=0.5;exitY=1;exitDx=0;exitDy=0;entryX=0.5;entryY=0;entryDx=0;entryDy=0;" edge="1" parent="WIyWlLk6GJQsqaUBKTNV-1" target="2tYWSclUZyd6j4Mg-vZg-8">
          <mxGeometry relative="1" as="geometry">
            <mxPoint x="452" y="267" as="sourcePoint" />
          </mxGeometry>
        </mxCell>
        <mxCell id="GInUh0l-TV1WXXjX3l_l-13" value="Backend computes source&#39;s depencency hull,&lt;br&gt;topologically sorted" style="rounded=0;whiteSpace=wrap;html=1;fillColor=#f8cecc;strokeColor=#b85450;" parent="WIyWlLk6GJQsqaUBKTNV-1" vertex="1">
          <mxGeometry x="375" y="247" width="150" height="45" as="geometry" />
        </mxCell>
        <mxCell id="GInUh0l-TV1WXXjX3l_l-14" value="No" style="edgeStyle=orthogonalEdgeStyle;rounded=0;orthogonalLoop=1;jettySize=auto;html=1;exitX=0.5;exitY=1;exitDx=0;exitDy=0;entryX=0.5;entryY=0;entryDx=0;entryDy=0;" parent="WIyWlLk6GJQsqaUBKTNV-1" source="GInUh0l-TV1WXXjX3l_l-6" target="GInUh0l-TV1WXXjX3l_l-13" edge="1">
          <mxGeometry x="0.0084" relative="1" as="geometry">
            <mxPoint x="453.625" y="215" as="sourcePoint" />
            <mxPoint as="offset" />
          </mxGeometry>
        </mxCell>
        <mxCell id="GInUh0l-TV1WXXjX3l_l-85" style="edgeStyle=orthogonalEdgeStyle;rounded=0;orthogonalLoop=1;jettySize=auto;html=1;exitX=0.75;exitY=1;exitDx=0;exitDy=0;entryX=0.5;entryY=0;entryDx=0;entryDy=0;" parent="WIyWlLk6GJQsqaUBKTNV-1" source="GInUh0l-TV1WXXjX3l_l-23" target="GInUh0l-TV1WXXjX3l_l-71" edge="1">
          <mxGeometry relative="1" as="geometry" />
        </mxCell>
        <mxCell id="GInUh0l-TV1WXXjX3l_l-86" style="edgeStyle=orthogonalEdgeStyle;rounded=0;orthogonalLoop=1;jettySize=auto;html=1;exitX=0.25;exitY=1;exitDx=0;exitDy=0;entryX=0.5;entryY=0;entryDx=0;entryDy=0;" parent="WIyWlLk6GJQsqaUBKTNV-1" source="GInUh0l-TV1WXXjX3l_l-23" target="GInUh0l-TV1WXXjX3l_l-62" edge="1">
          <mxGeometry relative="1" as="geometry">
            <mxPoint x="237.19000000000005" y="708" as="targetPoint" />
          </mxGeometry>
        </mxCell>
        <mxCell id="GInUh0l-TV1WXXjX3l_l-23" value="Introduce that node&#39;s &lt;br&gt;concept to Learner&lt;br&gt;(Familiar Definition)." style="rounded=1;whiteSpace=wrap;html=1;fillColor=#dae8fc;strokeColor=#6c8ebf;" parent="WIyWlLk6GJQsqaUBKTNV-1" vertex="1">
          <mxGeometry x="236.45" y="618" width="127" height="54.5" as="geometry" />
        </mxCell>
        <mxCell id="GInUh0l-TV1WXXjX3l_l-40" value="Yes" style="edgeStyle=orthogonalEdgeStyle;rounded=0;orthogonalLoop=1;jettySize=auto;html=1;exitX=1;exitY=0.5;exitDx=0;exitDy=0;entryX=0;entryY=0.5;entryDx=0;entryDy=0;" parent="WIyWlLk6GJQsqaUBKTNV-1" source="GInUh0l-TV1WXXjX3l_l-29" target="GInUh0l-TV1WXXjX3l_l-9" edge="1">
          <mxGeometry relative="1" as="geometry" />
        </mxCell>
        <mxCell id="2tYWSclUZyd6j4Mg-vZg-113" value="No" style="edgeStyle=orthogonalEdgeStyle;rounded=0;orthogonalLoop=1;jettySize=auto;html=1;exitX=0;exitY=0.5;exitDx=0;exitDy=0;entryX=1;entryY=0.5;entryDx=0;entryDy=0;" parent="WIyWlLk6GJQsqaUBKTNV-1" source="GInUh0l-TV1WXXjX3l_l-29" target="GInUh0l-TV1WXXjX3l_l-136" edge="1">
          <mxGeometry relative="1" as="geometry" />
        </mxCell>
        <mxCell id="GInUh0l-TV1WXXjX3l_l-29" value="Graph&amp;nbsp;&lt;br&gt;Empty?" style="rhombus;whiteSpace=wrap;html=1;" parent="WIyWlLk6GJQsqaUBKTNV-1" vertex="1">
          <mxGeometry x="417.12" y="434" width="70" height="70" as="geometry" />
        </mxCell>
        <mxCell id="2tYWSclUZyd6j4Mg-vZg-120" style="edgeStyle=orthogonalEdgeStyle;rounded=0;orthogonalLoop=1;jettySize=auto;html=1;exitX=0.5;exitY=0;exitDx=0;exitDy=0;entryX=0.5;entryY=1;entryDx=0;entryDy=0;" parent="WIyWlLk6GJQsqaUBKTNV-1" source="GInUh0l-TV1WXXjX3l_l-48" target="GInUh0l-TV1WXXjX3l_l-29" edge="1">
          <mxGeometry relative="1" as="geometry" />
        </mxCell>
        <mxCell id="GInUh0l-TV1WXXjX3l_l-48" value="Communicate&lt;br&gt;progress and&lt;br&gt;next steps" style="rounded=1;whiteSpace=wrap;html=1;fillColor=#dae8fc;strokeColor=#6c8ebf;" parent="WIyWlLk6GJQsqaUBKTNV-1" vertex="1">
          <mxGeometry x="403.53999999999996" y="544" width="96.92" height="46" as="geometry" />
        </mxCell>
        <mxCell id="G3OisUrH4MvTNsd7Q_-K-26" value="" style="edgeStyle=orthogonalEdgeStyle;rounded=0;orthogonalLoop=1;jettySize=auto;html=1;" edge="1" parent="WIyWlLk6GJQsqaUBKTNV-1" source="GInUh0l-TV1WXXjX3l_l-62" target="GInUh0l-TV1WXXjX3l_l-93">
          <mxGeometry relative="1" as="geometry" />
        </mxCell>
        <mxCell id="GInUh0l-TV1WXXjX3l_l-62" value="Ask learner to&lt;br&gt;self-evaluate" style="rounded=1;whiteSpace=wrap;html=1;fillColor=#dae8fc;strokeColor=#6c8ebf;" parent="WIyWlLk6GJQsqaUBKTNV-1" vertex="1">
          <mxGeometry x="190" y="708" width="94.38" height="50" as="geometry" />
        </mxCell>
        <mxCell id="GInUh0l-TV1WXXjX3l_l-88" value="Yes" style="edgeStyle=orthogonalEdgeStyle;rounded=0;orthogonalLoop=1;jettySize=auto;html=1;exitX=0.5;exitY=0;exitDx=0;exitDy=0;entryX=0.5;entryY=1;entryDx=0;entryDy=0;" parent="WIyWlLk6GJQsqaUBKTNV-1" source="GInUh0l-TV1WXXjX3l_l-64" target="GInUh0l-TV1WXXjX3l_l-48" edge="1">
          <mxGeometry relative="1" as="geometry">
            <mxPoint x="451.95" y="779" as="targetPoint" />
          </mxGeometry>
        </mxCell>
        <mxCell id="GInUh0l-TV1WXXjX3l_l-97" value="No" style="edgeStyle=orthogonalEdgeStyle;rounded=0;orthogonalLoop=1;jettySize=auto;html=1;exitX=1;exitY=0.5;exitDx=0;exitDy=0;entryX=0;entryY=0.5;entryDx=0;entryDy=0;" parent="WIyWlLk6GJQsqaUBKTNV-1" source="GInUh0l-TV1WXXjX3l_l-64" target="GInUh0l-TV1WXXjX3l_l-100" edge="1">
          <mxGeometry relative="1" as="geometry">
            <mxPoint x="663.9499999999998" y="908.625" as="targetPoint" />
          </mxGeometry>
        </mxCell>
        <mxCell id="GInUh0l-TV1WXXjX3l_l-64" value="L&#39;s comp.&lt;br&gt;sufficient?" style="rhombus;whiteSpace=wrap;html=1;" parent="WIyWlLk6GJQsqaUBKTNV-1" vertex="1">
          <mxGeometry x="413.13000000000005" y="659" width="80" height="80" as="geometry" />
        </mxCell>
        <mxCell id="2tYWSclUZyd6j4Mg-vZg-132" style="edgeStyle=orthogonalEdgeStyle;rounded=0;orthogonalLoop=1;jettySize=auto;html=1;exitX=1;exitY=0.5;exitDx=0;exitDy=0;entryX=0;entryY=0.5;entryDx=0;entryDy=0;" parent="WIyWlLk6GJQsqaUBKTNV-1" source="GInUh0l-TV1WXXjX3l_l-67" target="2tYWSclUZyd6j4Mg-vZg-131" edge="1">
          <mxGeometry relative="1" as="geometry" />
        </mxCell>
        <mxCell id="GInUh0l-TV1WXXjX3l_l-67" value="Update&lt;br&gt;Learner Model&lt;br&gt;(local &amp;amp; remote)" style="rounded=0;whiteSpace=wrap;html=1;fillColor=#ffe6cc;strokeColor=#d79b00;" parent="WIyWlLk6GJQsqaUBKTNV-1" vertex="1">
          <mxGeometry x="238.7" y="874.38" width="122.5" height="50.5" as="geometry" />
        </mxCell>
        <mxCell id="2tYWSclUZyd6j4Mg-vZg-118" style="edgeStyle=orthogonalEdgeStyle;rounded=0;orthogonalLoop=1;jettySize=auto;html=1;exitX=0.5;exitY=1;exitDx=0;exitDy=0;entryX=0.5;entryY=0;entryDx=0;entryDy=0;" parent="WIyWlLk6GJQsqaUBKTNV-1" source="GInUh0l-TV1WXXjX3l_l-70" target="GInUh0l-TV1WXXjX3l_l-23" edge="1">
          <mxGeometry relative="1" as="geometry" />
        </mxCell>
        <mxCell id="GInUh0l-TV1WXXjX3l_l-70" value="Consult logs which&lt;br&gt;LOs are new to L" style="rounded=0;whiteSpace=wrap;html=1;fillColor=#d5e8d4;strokeColor=#82b366;" parent="WIyWlLk6GJQsqaUBKTNV-1" vertex="1">
          <mxGeometry x="234.95" y="564" width="130" height="38" as="geometry" />
        </mxCell>
        <mxCell id="GInUh0l-TV1WXXjX3l_l-95" style="edgeStyle=orthogonalEdgeStyle;rounded=0;orthogonalLoop=1;jettySize=auto;html=1;exitX=0.5;exitY=1;exitDx=0;exitDy=0;entryX=0.5;entryY=0;entryDx=0;entryDy=0;" parent="WIyWlLk6GJQsqaUBKTNV-1" source="GInUh0l-TV1WXXjX3l_l-71" target="GInUh0l-TV1WXXjX3l_l-93" edge="1">
          <mxGeometry relative="1" as="geometry" />
        </mxCell>
        <mxCell id="GInUh0l-TV1WXXjX3l_l-71" value="Evaluate via&lt;br&gt;problem" style="rounded=1;whiteSpace=wrap;html=1;fillColor=#dae8fc;strokeColor=#6c8ebf;" parent="WIyWlLk6GJQsqaUBKTNV-1" vertex="1">
          <mxGeometry x="312.37" y="708" width="94.38" height="50" as="geometry" />
        </mxCell>
        <mxCell id="GInUh0l-TV1WXXjX3l_l-74" style="edgeStyle=orthogonalEdgeStyle;rounded=0;orthogonalLoop=1;jettySize=auto;html=1;exitX=0.5;exitY=1;exitDx=0;exitDy=0;entryX=0.5;entryY=0;entryDx=0;entryDy=0;" parent="WIyWlLk6GJQsqaUBKTNV-1" source="GInUh0l-TV1WXXjX3l_l-72" target="GInUh0l-TV1WXXjX3l_l-70" edge="1">
          <mxGeometry relative="1" as="geometry" />
        </mxCell>
        <mxCell id="GInUh0l-TV1WXXjX3l_l-72" value="Find Learning Objects&lt;br&gt;related to sink concept." style="rounded=0;whiteSpace=wrap;html=1;fillColor=#f8cecc;strokeColor=#b85450;" parent="WIyWlLk6GJQsqaUBKTNV-1" vertex="1">
          <mxGeometry x="234.95" y="507" width="130" height="40" as="geometry" />
        </mxCell>
        <mxCell id="GInUh0l-TV1WXXjX3l_l-87" value="" style="endArrow=classic;startArrow=classic;html=1;rounded=0;exitX=1;exitY=0.5;exitDx=0;exitDy=0;entryX=0;entryY=0.5;entryDx=0;entryDy=0;" parent="WIyWlLk6GJQsqaUBKTNV-1" source="GInUh0l-TV1WXXjX3l_l-62" target="GInUh0l-TV1WXXjX3l_l-71" edge="1">
          <mxGeometry width="50" height="50" relative="1" as="geometry">
            <mxPoint x="284.3800000000001" y="733" as="sourcePoint" />
            <mxPoint x="802.7000000000002" y="1098.75" as="targetPoint" />
          </mxGeometry>
        </mxCell>
        <mxCell id="GInUh0l-TV1WXXjX3l_l-90" style="edgeStyle=orthogonalEdgeStyle;rounded=0;orthogonalLoop=1;jettySize=auto;html=1;entryX=0.5;entryY=0;entryDx=0;entryDy=0;" parent="WIyWlLk6GJQsqaUBKTNV-1" edge="1">
          <mxGeometry relative="1" as="geometry">
            <mxPoint x="615.45" y="1000" as="sourcePoint" />
            <mxPoint x="615.45" y="1000" as="targetPoint" />
          </mxGeometry>
        </mxCell>
        <mxCell id="GInUh0l-TV1WXXjX3l_l-94" style="edgeStyle=orthogonalEdgeStyle;rounded=0;orthogonalLoop=1;jettySize=auto;html=1;exitX=0.5;exitY=1;exitDx=0;exitDy=0;entryX=0.5;entryY=0;entryDx=0;entryDy=0;" parent="WIyWlLk6GJQsqaUBKTNV-1" source="GInUh0l-TV1WXXjX3l_l-93" target="GInUh0l-TV1WXXjX3l_l-67" edge="1">
          <mxGeometry relative="1" as="geometry" />
        </mxCell>
        <mxCell id="GInUh0l-TV1WXXjX3l_l-93" value="Set &quot;cooldown&quot;&lt;br&gt;for LOs used so far" style="rounded=0;whiteSpace=wrap;html=1;" parent="WIyWlLk6GJQsqaUBKTNV-1" vertex="1">
          <mxGeometry x="239.95" y="802" width="120" height="45.25" as="geometry" />
        </mxCell>
        <mxCell id="GInUh0l-TV1WXXjX3l_l-109" value="Yes" style="edgeStyle=orthogonalEdgeStyle;rounded=0;orthogonalLoop=1;jettySize=auto;html=1;exitX=0.5;exitY=1;exitDx=0;exitDy=0;entryX=0.5;entryY=0;entryDx=0;entryDy=0;" parent="WIyWlLk6GJQsqaUBKTNV-1" source="GInUh0l-TV1WXXjX3l_l-100" target="GInUh0l-TV1WXXjX3l_l-108" edge="1">
          <mxGeometry relative="1" as="geometry" />
        </mxCell>
        <mxCell id="G3OisUrH4MvTNsd7Q_-K-16" value="Yes" style="edgeStyle=orthogonalEdgeStyle;rounded=0;orthogonalLoop=1;jettySize=auto;html=1;exitX=0.5;exitY=0;exitDx=0;exitDy=0;entryX=0.5;entryY=1;entryDx=0;entryDy=0;" edge="1" parent="WIyWlLk6GJQsqaUBKTNV-1" source="GInUh0l-TV1WXXjX3l_l-100" target="G3OisUrH4MvTNsd7Q_-K-13">
          <mxGeometry relative="1" as="geometry" />
        </mxCell>
        <mxCell id="GInUh0l-TV1WXXjX3l_l-100" value="LOs out&lt;br&gt;of cooldown&lt;br&gt;available?" style="rhombus;whiteSpace=wrap;html=1;" parent="WIyWlLk6GJQsqaUBKTNV-1" vertex="1">
          <mxGeometry x="533.95" y="651.6300000000002" width="100" height="94.75" as="geometry" />
        </mxCell>
        <mxCell id="GInUh0l-TV1WXXjX3l_l-116" style="edgeStyle=orthogonalEdgeStyle;rounded=0;orthogonalLoop=1;jettySize=auto;html=1;exitX=0.5;exitY=1;exitDx=0;exitDy=0;entryX=0.5;entryY=0;entryDx=0;entryDy=0;" parent="WIyWlLk6GJQsqaUBKTNV-1" source="GInUh0l-TV1WXXjX3l_l-108" target="GInUh0l-TV1WXXjX3l_l-106" edge="1">
          <mxGeometry relative="1" as="geometry" />
        </mxCell>
        <mxCell id="GInUh0l-TV1WXXjX3l_l-108" value="Pick (&quot;most helpful&quot;)&lt;br&gt;LO appropriate to concept and current LM state" style="rounded=0;whiteSpace=wrap;html=1;" parent="WIyWlLk6GJQsqaUBKTNV-1" vertex="1">
          <mxGeometry x="523.95" y="797" width="120" height="67" as="geometry" />
        </mxCell>
        <mxCell id="2tYWSclUZyd6j4Mg-vZg-136" style="edgeStyle=orthogonalEdgeStyle;rounded=0;orthogonalLoop=1;jettySize=auto;html=1;exitX=0;exitY=0.5;exitDx=0;exitDy=0;entryX=0.5;entryY=1;entryDx=0;entryDy=0;" parent="WIyWlLk6GJQsqaUBKTNV-1" source="GInUh0l-TV1WXXjX3l_l-112" target="GInUh0l-TV1WXXjX3l_l-121" edge="1">
          <mxGeometry relative="1" as="geometry" />
        </mxCell>
        <mxCell id="2tYWSclUZyd6j4Mg-vZg-137" style="edgeStyle=orthogonalEdgeStyle;rounded=0;orthogonalLoop=1;jettySize=auto;html=1;exitX=0;exitY=0.75;exitDx=0;exitDy=0;entryX=1;entryY=0.5;entryDx=0;entryDy=0;" parent="WIyWlLk6GJQsqaUBKTNV-1" source="GInUh0l-TV1WXXjX3l_l-112" target="GInUh0l-TV1WXXjX3l_l-128" edge="1">
          <mxGeometry relative="1" as="geometry" />
        </mxCell>
        <mxCell id="G3OisUrH4MvTNsd7Q_-K-24" style="edgeStyle=orthogonalEdgeStyle;rounded=0;orthogonalLoop=1;jettySize=auto;html=1;exitX=0.5;exitY=0;exitDx=0;exitDy=0;entryX=0.5;entryY=1;entryDx=0;entryDy=0;" edge="1" parent="WIyWlLk6GJQsqaUBKTNV-1" source="GInUh0l-TV1WXXjX3l_l-112" target="GInUh0l-TV1WXXjX3l_l-120">
          <mxGeometry relative="1" as="geometry" />
        </mxCell>
        <mxCell id="GInUh0l-TV1WXXjX3l_l-112" value="Present chosen&lt;br&gt;LO to learner" style="rounded=1;whiteSpace=wrap;html=1;fillColor=#dae8fc;strokeColor=#6c8ebf;" parent="WIyWlLk6GJQsqaUBKTNV-1" vertex="1">
          <mxGeometry x="390" y="998" width="120" height="60" as="geometry" />
        </mxCell>
        <mxCell id="G3OisUrH4MvTNsd7Q_-K-19" style="edgeStyle=orthogonalEdgeStyle;rounded=0;orthogonalLoop=1;jettySize=auto;html=1;exitX=0.5;exitY=1;exitDx=0;exitDy=0;entryX=1;entryY=0.5;entryDx=0;entryDy=0;" edge="1" parent="WIyWlLk6GJQsqaUBKTNV-1" source="GInUh0l-TV1WXXjX3l_l-106" target="GInUh0l-TV1WXXjX3l_l-112">
          <mxGeometry relative="1" as="geometry" />
        </mxCell>
        <mxCell id="GInUh0l-TV1WXXjX3l_l-106" value="Set cooldown for&lt;br&gt;LO used, reduce&lt;br&gt;other cooldowns" style="rounded=0;whiteSpace=wrap;html=1;" parent="WIyWlLk6GJQsqaUBKTNV-1" vertex="1">
          <mxGeometry x="532.82" y="895" width="104.25" height="47.5" as="geometry" />
        </mxCell>
        <mxCell id="G3OisUrH4MvTNsd7Q_-K-25" style="edgeStyle=orthogonalEdgeStyle;rounded=0;orthogonalLoop=1;jettySize=auto;html=1;exitX=1;exitY=0.5;exitDx=0;exitDy=0;entryX=0;entryY=1;entryDx=0;entryDy=0;" edge="1" parent="WIyWlLk6GJQsqaUBKTNV-1" source="GInUh0l-TV1WXXjX3l_l-120" target="GInUh0l-TV1WXXjX3l_l-100">
          <mxGeometry relative="1" as="geometry">
            <Array as="points">
              <mxPoint x="513" y="955" />
              <mxPoint x="513" y="723" />
            </Array>
          </mxGeometry>
        </mxCell>
        <mxCell id="GInUh0l-TV1WXXjX3l_l-120" value="Learner&lt;br&gt;skips LO" style="rounded=1;whiteSpace=wrap;html=1;fillColor=#dae8fc;strokeColor=#6c8ebf;" parent="WIyWlLk6GJQsqaUBKTNV-1" vertex="1">
          <mxGeometry x="411.12999999999994" y="936.0000000000002" width="70" height="38" as="geometry" />
        </mxCell>
        <mxCell id="2tYWSclUZyd6j4Mg-vZg-139" style="edgeStyle=orthogonalEdgeStyle;rounded=0;orthogonalLoop=1;jettySize=auto;html=1;exitX=0.5;exitY=0;exitDx=0;exitDy=0;entryX=0.75;entryY=1;entryDx=0;entryDy=0;" parent="WIyWlLk6GJQsqaUBKTNV-1" source="GInUh0l-TV1WXXjX3l_l-121" target="GInUh0l-TV1WXXjX3l_l-67" edge="1">
          <mxGeometry relative="1" as="geometry" />
        </mxCell>
        <mxCell id="GInUh0l-TV1WXXjX3l_l-121" value="Learner&lt;br&gt;fails LO" style="rounded=1;whiteSpace=wrap;html=1;fillColor=#dae8fc;strokeColor=#6c8ebf;" parent="WIyWlLk6GJQsqaUBKTNV-1" vertex="1">
          <mxGeometry x="295" y="946.9999999999998" width="70" height="38" as="geometry" />
        </mxCell>
        <mxCell id="2tYWSclUZyd6j4Mg-vZg-138" style="edgeStyle=orthogonalEdgeStyle;rounded=0;orthogonalLoop=1;jettySize=auto;html=1;exitX=0.5;exitY=0;exitDx=0;exitDy=0;entryX=0.25;entryY=1;entryDx=0;entryDy=0;" parent="WIyWlLk6GJQsqaUBKTNV-1" source="GInUh0l-TV1WXXjX3l_l-128" target="GInUh0l-TV1WXXjX3l_l-67" edge="1">
          <mxGeometry relative="1" as="geometry" />
        </mxCell>
        <mxCell id="GInUh0l-TV1WXXjX3l_l-128" value="Learner&lt;br&gt;clears&amp;nbsp;LO" style="rounded=1;whiteSpace=wrap;html=1;fillColor=#dae8fc;strokeColor=#6c8ebf;" parent="WIyWlLk6GJQsqaUBKTNV-1" vertex="1">
          <mxGeometry x="233.95" y="1024" width="70" height="38" as="geometry" />
        </mxCell>
        <mxCell id="2tYWSclUZyd6j4Mg-vZg-115" style="edgeStyle=orthogonalEdgeStyle;rounded=0;orthogonalLoop=1;jettySize=auto;html=1;exitX=0.5;exitY=1;exitDx=0;exitDy=0;entryX=0.5;entryY=0;entryDx=0;entryDy=0;" parent="WIyWlLk6GJQsqaUBKTNV-1" source="GInUh0l-TV1WXXjX3l_l-136" target="GInUh0l-TV1WXXjX3l_l-72" edge="1">
          <mxGeometry relative="1" as="geometry" />
        </mxCell>
        <mxCell id="GInUh0l-TV1WXXjX3l_l-136" value="Pick a sink node in dependency graph" style="rounded=0;whiteSpace=wrap;html=1;" parent="WIyWlLk6GJQsqaUBKTNV-1" vertex="1">
          <mxGeometry x="239.95" y="449" width="120" height="40" as="geometry" />
        </mxCell>
        <mxCell id="2tYWSclUZyd6j4Mg-vZg-2" style="edgeStyle=orthogonalEdgeStyle;rounded=0;orthogonalLoop=1;jettySize=auto;html=1;exitX=1;exitY=0.5;exitDx=0;exitDy=0;entryX=0;entryY=0.5;entryDx=0;entryDy=0;" parent="WIyWlLk6GJQsqaUBKTNV-1" source="2tYWSclUZyd6j4Mg-vZg-0" target="GInUh0l-TV1WXXjX3l_l-6" edge="1">
          <mxGeometry relative="1" as="geometry" />
        </mxCell>
        <mxCell id="2tYWSclUZyd6j4Mg-vZg-0" value="Fetch L&#39;s&lt;br&gt;Learner Model for&lt;br&gt;requested concept." style="rounded=0;whiteSpace=wrap;html=1;fillColor=#ffe6cc;strokeColor=#d79b00;" parent="WIyWlLk6GJQsqaUBKTNV-1" vertex="1">
          <mxGeometry x="252" y="130" width="120" height="60" as="geometry" />
        </mxCell>
        <mxCell id="2tYWSclUZyd6j4Mg-vZg-13" style="edgeStyle=orthogonalEdgeStyle;rounded=0;orthogonalLoop=1;jettySize=auto;html=1;exitX=0;exitY=0.5;exitDx=0;exitDy=0;entryX=0.5;entryY=0;entryDx=0;entryDy=0;" parent="WIyWlLk6GJQsqaUBKTNV-1" source="2tYWSclUZyd6j4Mg-vZg-4" target="GInUh0l-TV1WXXjX3l_l-6" edge="1">
          <mxGeometry relative="1" as="geometry" />
        </mxCell>
        <mxCell id="2tYWSclUZyd6j4Mg-vZg-4" value="Update Learner Model competency&lt;br&gt;or adapt sufficiency threshold" style="rounded=0;whiteSpace=wrap;html=1;fillColor=#ffe6cc;strokeColor=#d79b00;" parent="WIyWlLk6GJQsqaUBKTNV-1" vertex="1">
          <mxGeometry x="499.5" y="58" width="109.25" height="60" as="geometry" />
        </mxCell>
        <mxCell id="2tYWSclUZyd6j4Mg-vZg-8" value="Fetch Learner Model&lt;br&gt;for dependency hull" style="rounded=0;whiteSpace=wrap;html=1;fillColor=#ffe6cc;strokeColor=#d79b00;" parent="WIyWlLk6GJQsqaUBKTNV-1" vertex="1">
          <mxGeometry x="377.13" y="314" width="150" height="30" as="geometry" />
        </mxCell>
        <mxCell id="2tYWSclUZyd6j4Mg-vZg-18" value="" style="verticalLabelPosition=bottom;verticalAlign=top;html=1;shape=mxgraph.basic.smiley;" parent="WIyWlLk6GJQsqaUBKTNV-1" vertex="1">
          <mxGeometry x="628" y="467" width="40" height="40" as="geometry" />
        </mxCell>
        <mxCell id="G3OisUrH4MvTNsd7Q_-K-4" style="edgeStyle=orthogonalEdgeStyle;rounded=0;orthogonalLoop=1;jettySize=auto;html=1;exitX=0.5;exitY=1;exitDx=0;exitDy=0;entryX=0.5;entryY=0;entryDx=0;entryDy=0;" edge="1" parent="WIyWlLk6GJQsqaUBKTNV-1" source="2tYWSclUZyd6j4Mg-vZg-8" target="2tYWSclUZyd6j4Mg-vZg-57">
          <mxGeometry relative="1" as="geometry">
            <mxPoint x="452.1300000000001" y="397" as="sourcePoint" />
          </mxGeometry>
        </mxCell>
        <mxCell id="2tYWSclUZyd6j4Mg-vZg-59" style="edgeStyle=orthogonalEdgeStyle;rounded=0;orthogonalLoop=1;jettySize=auto;html=1;exitX=0.5;exitY=1;exitDx=0;exitDy=0;entryX=0.5;entryY=0;entryDx=0;entryDy=0;" parent="WIyWlLk6GJQsqaUBKTNV-1" source="2tYWSclUZyd6j4Mg-vZg-57" target="GInUh0l-TV1WXXjX3l_l-29" edge="1">
          <mxGeometry relative="1" as="geometry" />
        </mxCell>
        <mxCell id="2tYWSclUZyd6j4Mg-vZg-57" value="Determine cutoff points, remove dangling&lt;br&gt;dependencies." style="rounded=0;whiteSpace=wrap;html=1;" parent="WIyWlLk6GJQsqaUBKTNV-1" vertex="1">
          <mxGeometry x="381.49" y="366" width="141.28" height="48" as="geometry" />
        </mxCell>
        <mxCell id="G3OisUrH4MvTNsd7Q_-K-23" style="edgeStyle=orthogonalEdgeStyle;rounded=0;orthogonalLoop=1;jettySize=auto;html=1;exitX=0.5;exitY=1;exitDx=0;exitDy=0;entryX=1;entryY=0.5;entryDx=0;entryDy=0;" edge="1" parent="WIyWlLk6GJQsqaUBKTNV-1" source="2tYWSclUZyd6j4Mg-vZg-128" target="GInUh0l-TV1WXXjX3l_l-100">
          <mxGeometry relative="1" as="geometry" />
        </mxCell>
        <mxCell id="2tYWSclUZyd6j4Mg-vZg-128" value="Reduce cooldown&lt;br&gt;on used LOs" style="rounded=0;whiteSpace=wrap;html=1;" parent="WIyWlLk6GJQsqaUBKTNV-1" vertex="1">
          <mxGeometry x="614" y="609" width="103.13" height="54" as="geometry" />
        </mxCell>
        <mxCell id="2tYWSclUZyd6j4Mg-vZg-133" style="edgeStyle=orthogonalEdgeStyle;rounded=0;orthogonalLoop=1;jettySize=auto;html=1;exitX=0.5;exitY=0;exitDx=0;exitDy=0;entryX=0.5;entryY=1;entryDx=0;entryDy=0;" parent="WIyWlLk6GJQsqaUBKTNV-1" source="2tYWSclUZyd6j4Mg-vZg-131" target="GInUh0l-TV1WXXjX3l_l-64" edge="1">
          <mxGeometry relative="1" as="geometry" />
        </mxCell>
        <mxCell id="2tYWSclUZyd6j4Mg-vZg-131" value="Update&lt;br&gt;Dependency&lt;br&gt;Graph" style="rounded=0;whiteSpace=wrap;html=1;" parent="WIyWlLk6GJQsqaUBKTNV-1" vertex="1">
          <mxGeometry x="408.74999999999994" y="874.38" width="90.75" height="50" as="geometry" />
        </mxCell>
        <mxCell id="G3OisUrH4MvTNsd7Q_-K-15" value="Yes" style="edgeStyle=orthogonalEdgeStyle;rounded=0;orthogonalLoop=1;jettySize=auto;html=1;exitX=0;exitY=0.5;exitDx=0;exitDy=0;entryX=1;entryY=0.5;entryDx=0;entryDy=0;" edge="1" parent="WIyWlLk6GJQsqaUBKTNV-1" source="G3OisUrH4MvTNsd7Q_-K-13" target="GInUh0l-TV1WXXjX3l_l-48">
          <mxGeometry relative="1" as="geometry" />
        </mxCell>
        <mxCell id="G3OisUrH4MvTNsd7Q_-K-17" value="No" style="edgeStyle=orthogonalEdgeStyle;rounded=0;orthogonalLoop=1;jettySize=auto;html=1;exitX=1;exitY=0.5;exitDx=0;exitDy=0;entryX=0.5;entryY=0;entryDx=0;entryDy=0;" edge="1" parent="WIyWlLk6GJQsqaUBKTNV-1" source="G3OisUrH4MvTNsd7Q_-K-13" target="2tYWSclUZyd6j4Mg-vZg-128">
          <mxGeometry relative="1" as="geometry" />
        </mxCell>
        <mxCell id="G3OisUrH4MvTNsd7Q_-K-13" value="Other&lt;br&gt;sink concepts&lt;br&gt;available?" style="rhombus;whiteSpace=wrap;html=1;" vertex="1" parent="WIyWlLk6GJQsqaUBKTNV-1">
          <mxGeometry x="540.0000000000001" y="520.5" width="90.05" height="93" as="geometry" />
        </mxCell>
      </root>
    </mxGraphModel>
  </diagram>
</mxfile>
